<svg id="Layer_1" data-name="Layer 1" xmlns="http://www.w3.org/2000/svg" viewBox="0 0 8703.94 8703.94"><defs><style>.cls-1{fill:#f9bbc0;}.cls-2{fill:none;stroke:#f1d9c1;stroke-miterlimit:10;stroke-width:200px;}.cls-3{fill:#b78e75;}.cls-3,.cls-4,.cls-5,.cls-6,.cls-7,.cls-8{fill-rule:evenodd;}.cls-4{fill:#674332;}.cls-5{fill:#f1d9c1;}.cls-6{fill:#fff;}.cls-7{fill:#221f20;}.cls-8{fill:#ecadae;}</style></defs><title>Badge 12 - Bear</title><circle class="cls-1" cx="4351.97" cy="4346.29" r="4251.97"/><circle class="cls-2" cx="4351.97" cy="4351.97" r="4251.97"/><path class="cls-3" d="M6099.59,2428.56c13,19.94,21.94,35.84,32.94,50.16,116.5,151.63,200.34,321.18,272.33,497.11,70.13,171.42,118.52,349.51,155.67,530.78,21.42,103.93,44.39,207.44,62.88,311.94,14,79.36,21.84,159.88,33.11,239.81,11.43,79.79,24.28,159.44,35.42,239.37,11.85,86.74,22.54,173.76,33.53,260.62,7.82,61.73,14.89,123.6,22.4,185.48,1.32,11.4,2.74,22.83,3.75,34.38,9,91.8,18.52,183.45,26.46,275.38,6.52,75.88,10.56,151.93,17.21,227.81s14.89,151.34,22.54,227.09c.44,4.48,1.75,9.11,2,13.73,6,82.82,11.42,165.65,17.48,248.62,7.54,105.81,35.7,1728.68,42.05,1834.63l.14,2.29H2150.84c-6-381.48-18.66-1566.08-20.76-1631.5-2-62.31-9.83-124.32-10.11-186.48-5-804.5,76.76-1520.69,343.88-2278.25a3916.32,3916.32,0,0,1,259.75-581.67c41.07-74.88,88.61-146,133.41-218.85,11.86-19.23,24.3-38.3,39.47-62.29-27.74-11.57-50-22.41-73.28-30.08-90.76-29.92-173.32-75.3-252.09-128.79-78.33-53-138.92-123.16-183.45-204.68-52.18-95.55-63.74-198.61-17.78-300.08,98.46-217.41,266.13-353.58,500.58-395.78,135-24.15,251.37,19.79,329.44,141.22,31.65,49,55.35,101.19,69.82,157.71,24.44,96.26,47.83,192.82,43.65,293.43-.28,6.51,2.59,13.29,3.9,19.37,18.94,11.11,31.22-3.19,44.52-10.71,62.46-35,123.16-73.28,186.9-105.65,221.75-112.75,456.92-186.62,700.64-233,198.6-37.88,400-41.34,600.45-27.75,175.23,11.85,348.09,43.65,512.15,110,53.49,21.67,104.5,49.28,156.55,74.29,22.71,10.84,45.1,21.83,72.27,35.12,9.12-24.58,17.63-45.23,24.43-66.48,34.42-108.71,82.25-210.76,150-303,47-63.75,101.33-120.42,168.4-162.91,72-45.67,150.76-73.15,236.77-61.72,83.43,11.11,161.18,42.06,227.53,95.11,85.58,68.37,140.64,158.71,174.18,261.93,42.8,131.67,6.08,245-85.13,344.6-74,81.08-160.89,145.57-254.57,201.36-41.61,24.71-84,48.28-132.81,76.32Z" transform="translate(-84.25 -180.7)"/><path class="cls-4" d="M6831.22,5684.73l2,29.27c-393.91,7.92-787.82,13.94-1181.59,22.44-279.15,6.06-558.23,15.18-837.26,23.55-346.06,10.28-691.29,30.94-1036.32,54.8-297.66,20.52-595.43,39.74-893.14,61.13-252.34,18.21-504.53,39-757,58-.55-8.77-1.17-17.54-1.8-26.31l12.48-1q304.32-24.72,608.69-47.69,325.35-25,650.44-49.16,242-17.55,484.18-32.67c206.09-12.86,411.92-26.74,618.32-36.42,223-10.4,446.14-18.93,669.28-23.7,474.67-10.14,949.2-16.35,1423.79-25.88q119-2.48,237.86-6.32Zm11.15,240.87.88,35.49c-167.3,8.34-334.59,16.8-501.85,26.42-245,14-489.61,33-734.59,48.43-264.3,16.49-528.9,31.67-793.44,47.13q-313.14,18.21-626.69,35.56-300.93,16.26-601.89,31.36c-345.35,17.79-690.94,34.7-1036.32,53.64-138.34,7.65-276.55,17.15-414.79,26.16l-.29-23q156.49-11,312.93-23.3c172.36-13.3,345-22.41,517.73-32.23,231.22-13.16,462.37-25,693.57-37.73q296.77-16.26,593.14-33.4c200.71-11.56,401.08-23.7,601.55-35.26,189.33-11,378.72-20.82,568-32.52,172.68-10.85,345-24.28,517.53-35.56,175.32-11.42,350.63-23.13,526.12-32.25q189.21-9.91,378.39-19Zm6.37,277.15.82,37.76q-119.27,5.64-238.57,10.24-493.66,20-987.43,41.92-497.82,23-995.28,49.29c-197.95,10.11-396,19.95-593.52,33.1-214.41,14.31-428.31,31.52-642.39,48.86q-262.63,21.24-524.89,46c-166.37,15.46-332.64,32.52-499,48.57-77,7.4-154,14.87-231,22l-.36-31,1.24-.1c188.8-16.77,376.65-40.21,564.88-59.72,166.24-17.05,332.62-33.81,499.21-48.7q295.77-26.46,591.76-49.44c158.43-12.29,317.11-23.86,475.83-32.81q497.46-27.76,995.12-52c248.15-12,496.41-21.54,744.71-31.51,279.65-11.29,559.35-20.7,838.93-32.39Z" transform="translate(-84.25 -180.7)"/><path class="cls-4" d="M6854.83,6493.26l.6,29c-382.09,7.57-764.15,13.48-1146.09,21.73-279.15,6.06-558.24,15.18-837.27,23.55-346,10.28-691.28,30.94-1036.32,54.79-297.66,20.53-595.42,39.75-893.14,61.14-267.58,19.31-535,41.56-802.75,61.38l-.32-26.17,56.78-4.56q304.35-24.72,608.68-47.71c216.93-16.62,433.57-33.39,650.45-49.14q242-17.55,484.19-32.67c206.08-12.87,411.91-26.74,618.31-36.43,223.05-10.39,446.15-18.93,669.28-23.7,474.68-10.12,949.2-16.34,1423.8-25.87q102-2.13,203.8-5.3Zm4.93,241.78.72,35.58q-230.71,11.54-461.42,24.41c-245,14-489.61,32.95-734.59,48.42-264.29,16.48-528.9,31.65-793.44,47.13q-313.14,18.21-626.69,35.56-300.91,16.26-601.89,31.36c-345.35,17.78-690.94,34.69-1036.31,53.64-154.34,8.53-308.5,19.38-462.74,29.28l-.28-22.78c120.33-8.17,240.58-17.31,360.86-26.6,172.37-13.31,345-22.4,517.73-32.23,231.24-13.15,462.37-25,693.57-37.74q296.79-16.24,593.15-33.38c200.7-11.58,401.09-23.72,601.54-35.28,189.35-11,378.74-20.81,568-32.52,172.68-10.85,345-24.28,517.55-35.56,175.29-11.42,350.61-23.12,526.11-32.24q169.05-8.85,338.11-17.05Zm5.63,276.91.79,38q-98.76,4.47-197.53,8.33-493.65,19.93-987.43,41.91-497.83,23-995.28,49.29c-197.95,10.12-396,20-593.51,33.1-214.42,14.31-428.32,31.53-642.4,48.86q-262.64,21.26-524.88,46c-166.38,15.47-332.64,32.53-499.05,48.57-92.91,8.94-185.84,18-278.81,26.31l-.41-31.16q24.55-2.08,49.08-4.26c188.79-16.75,376.65-40.19,564.88-59.71,166.24-17,332.64-33.81,499.21-48.69Q3555.83,7182,3851.83,7159c158.42-12.29,317.08-23.86,475.8-32.82q497.49-27.75,995.13-52c248.15-12,496.42-21.53,744.71-31.5,266-10.75,532-19.78,797.92-30.7Z" transform="translate(-84.25 -180.7)"/><path class="cls-5" d="M4489.42,5374.89c-108.37-5.49-217-8.51-325.1-16.9-136-10.7-270.59-30.21-398.95-81-110.57-43.8-212.19-100.46-298.35-184.43-82.37-80.68-128.5-179.1-154.37-289.25-23.54-100.48-21-202.52-10.85-303.57a1680.91,1680.91,0,0,1,125-488c43.57-102.63,97.72-198.61,171.88-283.32,38.47-43.94,82.66-80.51,128.65-115.35,115.82-87.74,244.85-146.71,386.08-181.11a2911.74,2911.74,0,0,1,319.6-59.27c73.75-9.4,147.15-10.71,220.88-13.59,193.72-7.8,375.54,39,550.45,117.38,114.09,51,224.78,108.26,322.77,187.47,116,93.53,201.8,209,255.28,347.94,58.89,152.64,87.74,311.36,79.36,474.85-5.64,110.42-15.61,220.73-49,327.69-66.89,213.78-207,355.88-414.58,434.53-115.2,43.64-234.6,69.22-356.6,82.52-128.33,13.86-257,27-385.79,37.44-55.09,4.34-110.88.72-166.25.72-.14,1.73-.14,3.47-.14,5.2Z" transform="translate(-84.25 -180.7)"/><path class="cls-6" d="M2911,3462.51c6.89-97.86,39.41-195.15,113.85-279.27,73.76-83.57,237.79-78.64,303.85,35,30.08,51.73,44.52,107.54,43.52,165.51-1.26,69.54-15.9,137.33-47.71,200.64a305.38,305.38,0,0,1-82,101.91c-107.4,87-230.84,43.95-287.94-47.13C2923,3589,2911.66,3532.6,2911,3462.51Z" transform="translate(-84.25 -180.7)"/><path class="cls-7" d="M3365.39,3312.51a315.18,315.18,0,0,1,6.81,71.21c-1.26,69.54-15.9,137.33-47.71,200.64a305.38,305.38,0,0,1-82,101.91,234.54,234.54,0,0,1-34.09,23.08c-35.34.19-65.84-18.67-88.2-55.88-19.51-32.39-27-68.38-27.17-105.66-.27-89,30.78-166.67,87-234.61,54.3-65.41,143.51-48,185.3-.69Z" transform="translate(-84.25 -180.7)"/><path class="cls-8" d="M6852.09,4280.1c.9,81.1-18.36,155.24-72.27,218.27-11.84,14-20.24,30.93-30.79,46.11-130.65,189.07-383.21,228.68-556.23,149.6-181.51-83-256-283.74-172.45-464.87,74.78-161.89,205.1-250.65,376.56-284.33a533.23,533.23,0,0,1,206.42-.13C6703.52,3964,6775.78,4018.6,6818,4112c24.49,53.91,34.4,103.2,34.11,168.11Z" transform="translate(-84.25 -180.7)"/><path class="cls-8" d="M2811.79,4075.28c67.2-4.5,134.85,16,198.3,52.31,121.28,69.25,186.18,216,150.19,356-43.93,171.29-215.82,315.27-415.43,294.3-89.43-9.25-162.63-50.3-219-119.53-147.42-180.83-74.59-452.16,117.52-553.35,44.69-23.55,81.81-29.76,168.41-29.76Z" transform="translate(-84.25 -180.7)"/><path class="cls-7" d="M4541.21,4015.28c-69.8-5.36-128.11-18.79-183.48-43.37-66.89-29.63-124.45-70.83-165.79-132.26-51.74-76.89-43.08-153.8,25.15-217.83,46.31-43.66,99.44-74.89,161.32-91.22,144.73-38.3,288.66-34.54,430.47,12,38.91,12.87,76.17,33.39,110.72,55.94,22.43,14.61,41.49,37,56.53,59.56,33.68,50.15,35.41,103.79,7.37,157.85-27.74,53.19-70.4,90.77-122.29,119.11-65.91,36.13-138.05,52-211.05,65.19-22.5,4-45.09,8.24-70.69,12.86-3.73,31.95-7.22,61.29-11,90.64-11.8,94.1-20.82,188.35-22,283.31-1.27,108.7-7.23,217.27-8.82,325.82a737.4,737.4,0,0,0,9,124.31c4.49,29.2,15.32,58,27,85.28,11.3,26.46,33.11,43.65,61.43,52.18,36.77,11,68.67,1.89,93.09-27.89,21.16-25.73,30.66-56.52,39.47-87.88,4.2-15.48,8.38-31.08,14.74-45.82,1.75-3.91,11.29-5.79,17.35-6.08,2.81-.15,8.67,5.64,8.39,8.52-3.76,71.41-20.53,137.91-82.83,181.85-50.58,35.71-126.64,20-168-31.8-20.64-26-32.37-56.36-37.44-88.47-6.74-43.36-14.74-87-15.33-130.67-2.41-187.34-5.47-374.67,14.46-561.29,5.83-54.64,14-109,22.16-169.84Z" transform="translate(-84.25 -180.7)"/><path class="cls-4" d="M3172.48,2355.12c-67.39,66.64-132.74,131.25-203.29,201.08-8.24-1-25.3.57-38.88-5.49-98.88-45.11-175.64-110.89-194.58-224.63-11.95-71,6.08-134.73,66.35-177.66,64.22-45.53,134.73-59.12,208.31-20.81,46,24,83.39,57.24,109.13,102.91,22.59,40,42.92,80.8,53,124.6Z" transform="translate(-84.25 -180.7)"/><path class="cls-4" d="M5692.94,2131.37c33.7-99.31,119.7-182.29,214.66-207.15,105.25-27.47,215.53,32.09,240.09,131.82,6,23.87,8.11,51.32,2.46,74.74-21.65,89.19-63.45,167.83-133.56,229.4-6.47,5.64-14.89,9.25-22.26,13.88-48.68-45.82-93.09-92.79-143-132.84s-105.37-73.57-158.43-109.85Z" transform="translate(-84.25 -180.7)"/><path class="cls-4" d="M4659.73,2969.61c-2.14-.87-5.52-1.16-6.24-2.6-18.22-39.32-11.14-79.94-5.79-120.27.58-4.77,9.25-11.27,14.6-11.72s15.18,4.93,15.9,9c7.28,42.5,13,85.14-12.72,124.31-.8,1.16-3.9.87-5.75,1.31Zm-158.59-253.69c-22.24-33.39-20.69-61.58-19.53-103.5,11.47,16.19,18.65,21.69,18.94,27.47,1.5,22.26.58,44.67.59,76Zm-125,360.94c48.85,35.85,51.87,75.46,55.93,114.78-38-25-46.86-62.31-55.93-114.78Zm414.74,109.27c-6.5-4.9-12.2-7.07-13.07-10.39a164.68,164.68,0,0,1,.3-93.38c1.32-4.34,10.54-9.69,14.61-8.68,4.93,1.3,11.7,8.82,11.7,13.74.19,32.95-1.88,65.91-13.54,98.71Zm436.67-654.8c-5.07-5.35-7.84-6.93-7.84-8.53.61-37.73,20.82-67.8,39.9-98,2.48-3.76,13.16-5.63,17.92-3.46,4.53,2,10.27,12.14,8.66,15.61-11.22,24.57-23.55,48.71-37.13,72.13-4.86,8.67-14.17,14.88-21.51,22.26Zm-187.34,440.88c-4.48-6.51-8.86-9.83-9-13.3-.57-33.1,14.6-60.72,32.53-86.87,2.93-4.35,12.56-7.37,17.61-5.93,4.38,1.31,10.28,10.69,9.25,14.89-8.78,34.4-20.65,67.51-50.4,91.21Zm-932.52-280.86c23.61,1.87,31.07,19.23,37.87,35.7,9.88,23.71,29,45.68,18.07,80.23-34.93-27.33-44.53-65.05-61-98.29-2-4,3.32-11.87,5.06-17.64Zm758.91-218.86c-14.57-37.44-2.92-69.22,12.83-99.88,2.19-4.34,12.29-8,17.21-6.49,4.49,1.14,10,10,9.69,15-2.71,34.25-17.06,64.19-39.73,91.35Zm-1034.12-92.37c-22.38-8.66-30.95-9.1-33.55-13.28-15.3-25.45-30.22-51.32-43.23-78.07-2.58-5.49,4.06-15.31,6.52-23.13,7.55,4.2,18.63,6.38,22,12.73,14.92,28,27.45,57.24,48.29,101.75Zm101.47,101.62c47.16,31.38,50.72,77.34,73.56,113.49-21.65,11.55-27.9-.3-32.52-8.83-16.58-30.5-43.67-57.38-41-104.66Zm1116.8,27.18c-10.41-41.33.84-77.19,18.05-111.73,1.33-2.6,9.1-4.78,12-3.17,5.22,2.72,12.88,8.51,12.72,12.71-1.72,38.6-17.05,72.27-42.76,102.19Zm372.08-291.56c12.15,12.72,18,16.77,17.47,18.8-4.6,14.59-8.53,29.93-16.49,42.64-12.57,20.23-24.14,42.93-56.22,50.45,2.8-46.69,31.8-74.15,55.24-111.89ZM4849,2744.11c-8.26-14.6-14.2-20-13.62-24.71,2.63-27.19,5.2-54.36,11.13-80.81,2-8.54,14-20.39,21.82-20.68,15.08-.57,14.32,15,12.57,25.45-5.17,31.21-11.55,62.3-31.9,100.75ZM4102.08,2153c32.2,52.76,40.14,95.41,28.14,130.68-21.83-31.81-37.88-78.35-36.88-110,.21-6.07,4.94-12.14,8.74-20.67Zm512,1049.14c-32.53-41.92-34.88-77.33-32.13-113.47.44-5.78,11.26-11.56,18.35-15.75,1.74-1.16,9.68,3,10.41,5.91,9.87,36.3,16.33,72.73,3.37,123.31Zm-306.64-217c-4.3,0-7.22,1-8.81,0-32.24-23-41.49-58.39-50-93.8-.69-3.34,3-10.12,6.06-11.28,5.8-2,15.48-4.05,18.66-1,8.09,7.8,16.18,17.48,19.08,27.89,7.43,25.45,25.29,49.59,15,78.2Zm25.3-487.57c-27.31-30.2-35.27-64.75-32.24-101.75.5-5.21,6.94-12.43,12-14,4.62-1.31,14.74,2.31,16.32,6.21,14.32,35.56,17.36,72,3.91,109.56Zm380.8-16.76c-11.46-43.8-3.53-86.59,6.31-128.93,1-4.35,9.38-8.11,15.17-9.69,2.32-.59,9.12,4.62,9.39,7.66,3.92,43.66,1.89,86.73-16.62,127.35-1.13,2.46-8.23,2.17-14.25,3.61Zm112-264.23c-8.26-46.27-1.76-89.18,28.88-136.45,14.18,54.63,10.85,70.82-28.88,136.45Zm43.19,764.81c-12.09-41.34-8.23-82.39,6.93-122.87,1.21-3,7.24-5.78,11-5.78s10.4,3.18,10.84,5.63c6.68,42.79,3.32,84.28-18.08,122.87-.54.86-4.33.15-10.69.15Zm292.45-208.88c-3.18-10-8.41-17.2-6.68-21.82,10.72-27.62,22-55.07,35.27-81.53,2.78-5.49,16.62-10.27,22.7-7.94,5.51,2,12.44,15.89,10.26,21.24-13.4,33.09-27.47,66.79-61.55,90ZM3970,2343c-33.83-22-58.87-84.27-57-140.93,4.2,0,11-1.6,12.14.28,24.18,38.88,40.76,92.52,44.87,140.65Zm1086.69,286.21c0,16.33,4,32.67-.74,45.82-9.54,26.17-12.29,57.1-39.17,76.18-16.62-33.1-16.05-48.85,2.31-95.54,6.25-16.05,6.22-16.05,37.6-26.46ZM4287.52,2234c-4-1.3-10.73-1.44-11.74-3.91-15.57-36.71-19.24-75.31-13.59-114.48.62-4.77,9.39-11.43,14.75-11.7,4.93-.15,13.3,5.93,14.89,11,9.68,30.22,7.07,80.23-4.31,119.11Zm143.57-23.27c-5.79-9.7-12.51-16.33-13.8-23.85-3.89-24.58-6.51-49.44-8.24-74.16-.86-11.28,1.73-22.84,15.61-26.45,11.76-3,23,7.8,23.42,26,.63,27.18-.43,54.36-2.18,81.52-.24,4.77-7.79,9.27-14.81,16.92Zm233.59,12.14c-5-3.62-10.76-5.5-11.63-8.81-10.82-38.16-5.78-75.9,6.08-112.75,1.32-3.76,10.83-6.23,16.77-6.8,2.89-.29,8.38,4.62,9.1,8,2.17,8.66,3.9,17.91,2.89,26.59q-4.49,40.32-11.7,80.23c-1,5-7.68,9.1-11.51,13.58ZM4166.8,2555.32c-28.63-2.75-32.39-23-37.73-39.31-9.24-27.47-29.5-53.05-17.51-84.7,1.31-3.19,7.52-4.35,14.17-8.11,26.89,39.76,40.76,82.55,41.07,132.12Zm1018.51-271.45c-7.67-50.46,8.36-86.17,37.27-116.81,3.52-3.61,15.9,1.16,28.34,2.6-12.72,44.53-23.57,84.28-65.61,114.21Zm-229.94,878.7c7.49-20.09,17.87-50.14,30-79.64,1.74-4.33,11.86-8.24,17.05-7.22,4.79,1,12.72,10.11,11.85,13.3-10.83,34.68-22.83,69.23-35.12,103.35-.82,2.45-8.09,4.33-11.7,3.46-3.89-.86-8.24-4.62-10.12-8.23-1.83-3.76-.87-9-2-25Zm47.22-890.13c-10.8-11.57-18.94-16.34-18.94-21,0-39.17,3.89-78,22.53-113.46,2.34-4.48,11.72-8.39,16.77-7.38s12.72,8.39,12.72,13c-.22,44.1-18.78,82.68-33.08,128.8Zm-518.16,692.1c-10-3.9-18.87-4.47-21.32-8.81-18.31-32.53-29.2-67.51-25.59-105.38.46-5.21,7.09-12.43,12.16-13.87s15.75,2.15,17,5.92c13.35,38.45,23.85,77.47,17.71,122.14Zm14.82-491.33c-22.38-9.82-21.25-22.68-21.4-33.24-.13-31.8-9.53-64.18,3-94.1,15.64-7.52,25.87-1.15,28.62,11,9,38.73,6.36,76.76-10.26,116.36Zm196.19,254.7c-28.75-38-25.48-77-11-116.65,1.33-3.47,6.22-6.93,10.27-8.09s8.66.44,15.31,1c12.31,42.64,2,83.12-14.56,123.73Zm-368.63,31.38c-2.27.13-5.8,1.29-6.79.15-32.82-36-41.79-80-39.47-126.78.14-4.78,7.37-12.43,12-13,4.8-.57,14.32,4.78,15.33,9.12,9.71,40,18.21,80.36,26.45,120.69.44,2.75-4.92,6.51-7.51,9.84Z" transform="translate(-84.25 -180.7)"/><path class="cls-6" d="M5672.71,3381.33c6.88-97.86,39.41-195.15,113.85-279.27,73.75-83.56,237.78-78.64,303.84,35,30.09,51.74,44.52,107.55,43.52,165.51-1.26,69.53-15.91,137.32-47.7,200.63a305.43,305.43,0,0,1-82,101.91c-107.41,87-230.84,43.95-287.94-47.11-31.65-50.19-42.94-106.54-43.61-176.65Z" transform="translate(-84.25 -180.7)"/><path class="cls-7" d="M6127.11,3231.33a315.27,315.27,0,0,1,6.81,71.22c-1.26,69.53-15.91,137.32-47.7,200.63a305.43,305.43,0,0,1-82,101.91,233.48,233.48,0,0,1-34.09,23.08c-35.35.21-65.84-18.66-88.2-55.88-19.52-32.37-27-68.36-27.18-105.66-.27-89.05,30.79-166.66,87-234.6,54.3-65.42,143.5-48,185.3-.7Z" transform="translate(-84.25 -180.7)"/></svg>