<?xml version="1.0" encoding="utf-8"?>
<svg id="Layer_1" data-name="Layer 1" viewBox="0 0 8703.94 8703.94" xmlns="http://www.w3.org/2000/svg">
  <defs>
    <style>.cls-1{fill:#d7b7f9;}.cls-2{fill:none;stroke:#f1d9c1;stroke-miterlimit:10;stroke-width:200px;}.cls-3{fill:#e29049;}.cls-3,.cls-4,.cls-5,.cls-6,.cls-7,.cls-8{fill-rule:evenodd;}.cls-4{fill:#e9c39a;}.cls-5{fill:#fff;}.cls-6{fill:#df6574;}.cls-7{fill:#221f20;}.cls-8{fill:#c46c3c;}</style>
  </defs>
  <title>Badge 11 - Fox</title>
  <circle class="cls-1" cx="4351.97" cy="4346.29" r="4251.97" style="fill: rgb(191, 191, 191);"/>
  <circle class="cls-2" cx="4351.97" cy="4351.97" r="4251.97" style="stroke: rgb(139, 138, 138);"/>
  <path class="cls-3" d="M3198.11,7613c2.77-8.22,5.61-16.25,8-24.3,195.38-656.29,390.16-1219,455.19-1317.89,19.63-8,39-3.38,58.43,2.93,122.07,39.54,247.92,53,375.44,63.63,214.84,17.94,429.54,10.8,644.37,10.38,69.1-.14,138.18-9.68,207-17.11,46.53-4.9,92.78-12.61,139-20.6,41.65-7.14,83.1-16.25,124.58-24.8,27.49-5.61,38.55.7,48.22,31.95,37.86,121.65,77.49,242.88,112,365.35,60.57,215.27,118,431.36,175.89,647.18,24.27,90.66,46.93,181.9,68.8,273.13.81,3.36,1.52,6.75,2.16,10.15Z" transform="translate(-84.25 -180.7)" style="fill: rgb(191, 191, 191);"/>
  <path class="cls-4" d="M4814.54,6483.39c4.23,7.29,9.07,12.48,10.33,18.37,6.75,34.6,2.1,163.4-7.28,205.72-5.57-2.52-14.87-3.78-15.71-7.14-17.49-65.31-17.23-131.32-3.64-197.18,1.17-5.47,7.57-9.67,16.3-19.77ZM4285.05,7558c-17.78-36.57-13.89-73.28-3-109,18.67-.41,17.12,10.52,16.13,17.94-3.64,30.41-8.7,60.82-13.17,91.08Zm-196.75,5.75c-14.58-35.45-5.2-85.62,22.83-121.64,5.61,40.92,1.81,61-22.83,121.64Zm1328.56-161.43c25.8,53.54,16,103.42,16.79,158.77-15.79-38.67-24-114.63-16.79-158.77Zm-1311.28-85.77c-8.14-45.12-12.12-89.69,13.54-129.91,15.27,45.68-.84,87.72-13.54,129.91Zm378.07,112.26c21.31,50,20.72,78,1.8,141.11-16.38-42.88-17-64.6-1.8-141.11Zm408.2-10.24c8.71,53.12-3.77,101.18-10.79,157.52-20.17-35.88-20.87-40.63-14.44-104.26,2-19.06.29-40.22,25.23-53.26Zm124.74,160.88c.7-51.43-7.72-95.42,16.26-140.14,6.07,6.31,13.72,10.79,13.43,14.72-2.32,37.84-5.73,75.4-9.66,113.08-.1,2.4-6.45,4.21-20,12.34ZM3907.93,7434c16.84,49,1.11,82.27-.29,115.47-.4,10.51-2.8,22.14-20.6,23.83-4.34-43-8.84-85.35,20.89-139.3Zm926.35-583.14c3.77,1.27,10.49,1.68,11.19,3.93,13.21,46.66,9.95,93.75,4.9,150.93-9.91-14.43-16.81-20.47-18.49-27.76-10.34-44.14-9-91.35,2.4-127.1ZM3497.65,7565c-7.89-50.45-3-99.93,16.33-146.3,13.93-2.81,19.2,3.08,19.62,13.16,1,34.76-13.45,95.72-35.95,133.14ZM3670,6623c-.44-52.82,7-99.36,34.73-149.24,7.46,11.78,16.1,19.47,14.85,24.53-10.61,40.62-23.26,80.71-35.59,120.79-.24,1.13-3.93,1.27-14,3.92ZM5266.33,7595.7c-24.09-21.58-24.26-22-26.35-96.7-1.4-46.53-1.41-46.53,22.28-69.93,3.37,5.32,9.25,10.09,9.38,15.15,1.88,49.87,4.62,100.05-5.31,151.48Zm24.53-318.12c-10.67-61.11-11.65-115.76-7-177.7,28.47,28.44,28.86,28.59,27.31,109.18-.37,21.71,7.29,47.08-20.29,68.52Zm-592.48-270.05c-9-17.53-17.44-26.21-17.3-34.75.59-39.95-9.66-82.13,18.35-120.82,6.64,7.16,14.17,11.5,14.45,16.26,2.72,43.72-2.12,86.61-15.5,139.31Zm-191,12.76c-25.41-44.58-17.84-92.51-14.91-139.45.6-8.54,10.38-16.4,17.81-27.46,15.83,44.55,16,91.09-2.9,166.91Zm192.28,400.93c7.95,46.4-10,91.09-10.56,136.64,0,4.9-6.31,9.67-10.5,15.56-13.87-34.2-16-43.58-10.38-88,2.82-21.31,10.5-42,16.82-62.78.56-1.41,7.71-.84,14.62-1.41Zm-968.53,8.68c-14.19,89.84-20.78,111-43.49,140.86-1.54-1.26-4.05-2.39-4.34-3.93-8.54-47.65,4.5-92.21,21.6-135.66,5.18-13.16,16.81-11.77,26.23-1.27Zm-173.37-323c2.09,3.64,6.71,7.84,6,10.93q-16.74,71-35,141.68c-1.92,7.7-7,14.44-13.58,27.48-14.44-25.8-9.11-45.56-4.62-63.21,9.66-38.4,11.47-79.33,35.16-113.24,2-2.66,8-2.52,12.08-3.64ZM4947,7298c-3.09-7-8.59-13.86-8.87-21.14-2.22-50.6,2.66-100.35,18.22-148.71,7.17,1.42,14,1.55,14.29,2.95,11,56.9-11.63,110-23.64,166.9Zm-486.6-141.25c11.11,58-5.46,112.1-11.37,181.77-35.29-59.43-17.23-107.08-13.58-153.47,1-13,4.06-26.19,24.95-28.3Zm-709.91-27.18c-11.34,60.8-28.51,115.75-48.68,171.52-7.14-5-12.9-7.14-13-9.66-3.49-49.75,13.31-95.59,28.87-141.41,3.53-10.09,8.55-20.88,32.85-20.45Zm360.41-113.8c-5.86-3.65-11.23-4.91-13.05-8.13-14.82-28.17-2-56.63.41-84.66,2-21.7,1.68-45.12,24.25-61.09,4.54,3.5,13.45,7.56,13.31,11.07-2,48.48-6.31,96.56-24.92,142.81Zm123.92,296.67c-17.85-34.89-13.52-70.07-7.77-104.54,3.54-20.88.71-45.27,23.95-61.67,4.69,3.93,12.78,7.72,12.78,11.63,1.25,53.13-7.44,104.7-29,154.58Zm-270.1-475.63c8.26,64.31-14,114.49-29,174.34-9.06-11.49-17.51-17.25-17.51-22.86.75-44.42,6-88.42,22.56-130.19,2.73-6.58,11.63-10.65,24-21.29Zm1229.62,142.1c-21.14-61.11-23.85-120.11-19.09-179.81.16-2.67,5.75-6.72,9.11-7,3.68-.27,7.71,2.81,11.36,4.92,1.71,1.12,3.49,3.35,3.63,5.32,3.69,53.11,7.58,106.36,10.22,159.62.16,4.35-7.83,9-15.23,17Zm-415.66,330.6c-15-63.21-19.09-119.55-3.4-179.25,24,12.19,20.6,29.15,21.17,44.28,2.67,82.13,1.12,95.17-17.77,135Zm-844.93-164.39c13.88,53.81-7,102.3-11.91,151.63-.37,4.06-9.13,7.15-14.58,11.21-17.78-68.54-8.41-131.74,26.49-162.84Zm-74.41-489c-11-50.72,2.5-95.43,17.91-139.43,2-5.75,14.58-11.91,20.88-10.79,5.36,1,13.47,13.31,12.35,19.06-6,30.55-14,60.81-22.3,90.8-3.87,13.88-1.53,32.1-28.84,40.36Zm395.92-129.48c9.64,49.47,3.47,111.13-18.26,171.53-6.41-8-15.13-13.73-15.28-19.47.05-41.91.29-83.8,3.52-125.57,1.12-14.57,8.4-30.83,30-26.49ZM3763,6986.5c-9.78-8.68-15.42-11.22-15.56-14-2.92-49.89,12.05-96.14,31.11-141.26,1.73-3.79,5-8.4,8.69-9.53a36.47,36.47,0,0,1,18.65-1c3,.69,5,6.57,7,10.36a8.53,8.53,0,0,1,.55,6.44c-16.21,47.79-26.9,97.54-50.44,149ZM4315,6850.29c19.73,57.18,10.32,112.11-3.56,177.14-9.75-16-18.78-23.83-19.06-32-1.35-49.61-13.45-100.75,22.62-145.18Zm317.39,278.46c12.36,54.79,4.87,127.67-17.83,177.14-14-3.23-15.4-14.57-15.28-25.65.77-50.59-4-102,21-149,1.31-2.39,8-1.67,12.08-2.52Zm9.78-624.9c6.37,2.11,9.81,2.11,10.37,3.52,3.13,7.84,8.84,16.38,7.71,24-8.24,57.87-.28,117.57-15.56,179.37-24.21-13.17-21.29-32.66-20.59-48.35,2.43-53-11.49-108.61,18.07-158.5ZM3595.45,6958.06c-1.83-5.46-6.07-11.5-5.36-16.82,7.88-53.26,25.49-103.42,47.79-152.19,1-2,2.51-4.63,4.19-5.06,6-1.67,12.47-3.77,18.37-3.07,2.67.27,7.27,7.29,6.57,10.24-14,58-30,115.33-63.47,165.92-.71,1.11-4.21.56-8.09,1Zm1456.46,49.61c-28.57-37.42-35.19-60.68-35.89-121.51-.24-21.15-8.54-45.54,17.52-61.52,4.81,4.21,12.19,7.57,13.46,12.34,12.92,52.68,9.39,105.81,4.91,170.69Zm78.89,116.74c6.5,9.53,14,15.83,15.13,23,6.89,45.53-1.54,126.55-16.12,165.22-24.92-21-18.22-49.89-17.5-75.25,1-36.58-11.08-76,18.49-112.95ZM4085.65,6518.28c0,11.92,2.92,25.51-.45,37.14-14.57,49.9-13.87,103.43-35.73,156.55-7.52-8.27-14.3-12.19-15-16.95-7.27-53.69,4.91-105.55,18.65-156.84,3.4-12.47,11.06-24.79,32.54-19.9Zm909.69-37.41c11.29,57.6,9.61,171.11-2,228.15-5.75-3-14.73-4.75-15.56-8.4-14.28-66.15-15.29-132.72-.71-199,1.12-5.18,7.71-9.11,18.28-20.75ZM5169.09,6688c-25.92-68-24.56-130.89-28.63-192.7-.64-9.4,6.31-19.35,12.49-36.71,9.58,13.86,17.36,20,17.93,26.91q8.27,87,13.72,174c.43,6.72-7.27,13.88-15.51,28.46Zm-754.7,35.87c-5-11.07-12.75-20.59-13.32-30.4-2.38-48.65-3.22-97.41-3.63-146.18,0-8.26,4.77-16.68,8.68-24.39,1.71-3.5,7.43-8.13,10.1-7.43,5.62,1.55,10.64,5.89,15.55,9.68,1.54,1.11,2.52,3.78,2.67,5.88,1.85,61.81,7.43,123.76-6.31,185-.24,1.41-3.66,2.11-13.74,7.86Z" transform="translate(-84.25 -180.7)" style="fill: rgb(191, 191, 191);"/>
  <path class="cls-3" d="M7254.3,4554.94c5.17,31.82-9.57,50.3-20.21,69.37-66,117-133.14,233.48-210.35,343.63-155.11,221.14-338.87,417.2-535.48,601.2-103,96.41-216,181.35-330,264.46-165.08,120.24-337,229.12-520.91,318.67-112.79,54.81-229.42,101.19-348.11,141.27-52.7,17.8-108.05,29-163.13,37.84-96.95,15.54-194.65,27-292,40.07a52.47,52.47,0,0,1-6.74.43c-125.41-.14-250.15,20.88-375.71,12.75-89.12-5.75-178-15.56-267.25-21.16-78.18-5.05-155.42-17.1-232.65-29.71-119.23-19.2-237.39-43.59-354-74.69-145-38.56-287.86-83.54-426.59-141.13-207.25-85.77-409.91-180.08-595.88-307.47-176.71-120.8-335.79-260.1-475.08-423.23-64.18-75-124.46-152.61-183-231.92-87.28-118-151.63-248.62-203.9-384.85-34.33-89.82-61.39-182.32-91-273.84-3.92-12.18-3.37-25.92-5.2-40.64,38.68-21.16,76.39-39.92,112.12-61.79,117.75-72,218.19-163.41,306.63-269.21,143.93-172.1,268.79-358.07,397.59-541.23q100.29-142.74,204.6-283c20.05-26.9,29.58-54.09,26.63-87-21.72-252.82-8.13-506.2-10.66-759.28-2.51-251-1.11-502.13-1.4-753.26-.14-13.32-.28-26.92,1.4-40.23,4.08-31.24,30.56-45.26,59.29-30.4,17.95,9.11,34.47,21,50.87,32.51,55.36,39,104.4,85.19,148.4,135.93,76.26,88,149.95,178.12,224.09,268,120,145,230.26,297.37,334.52,454,7.3,10.93,16.4,20.6,26.63,33.07,17.81-6.72,34.61-12,50.44-19.47,160.64-76,329.34-128.65,502.55-165.52,84.81-18.07,171.4-31.67,259-33.49,31.25-.56,62.22-8.54,93.33-9.38,98.67-2.53,196.2,9.38,294,20.17,177.45,19.47,344.19,78.21,512.07,132.59,98.25,31.81,78.48,31,132.86-45.27,114.51-160.33,226.19-322.89,344.19-480.55,125.18-166.92,265-321.48,417.21-464.43,13-12.2,25.92-25.36,41-34.62,25.53-15.7,55.22-6,66.57,21.87,18.8,45.82,28.45,93.89,34.2,143.08,24.69,214.56,16.82,430,9,644.65-5.32,143.22-2.66,286.73-12.34,429.67-8.81,132-8,264-12.19,396.05-.41,11.22.43,23.13-3.37,33.35-14.4,39.1,1.82,69.51,25.65,98.24,139.45,167.76,246.65,357.37,362.13,541.22,102.32,163,200.27,329.06,315.74,483.5,81,108.32,172.66,205.86,286.17,281.26,12.89,8.68,25.08,18.36,38.29,27.89Z" transform="translate(-84.25 -180.7)" style="fill: rgb(191, 191, 191);"/>
  <path class="cls-4" d="M3546.1,2535.64l2.11-1c160.64-76,329.34-128.65,502.55-165.52,84.81-18.07,171.4-31.67,259-33.49,31.25-.56,62.22-8.54,93.33-9.38,98.67-2.53,196.2,9.38,294,20.17,174.65,19.18,338.93,76.37,504.15,130-52.19,101.19-101.5,204-152,306.09-18.87,38.11-36.15,76.94-55.07,115.07A5629.7,5629.7,0,0,0,4585,3990c-14.69,56.19-24.24,113.65-36.29,170.55-2.24,10.92-3.79,22.14-7.15,32.66-7.7,23.66-21.86,31.94-46.66,24.65-88.43-25.94-180.23-30.83-270.91-42.61-1.66-.27-3.79,2.26-8.81,5.61,3,15.42,8.68,32.25,8.54,49.06-.14,8.68-9.11,20.74-17.24,24.94-11.21,5.75-22.13-3.22-26.76-13.72-8.1-18.37-14.29-37.57-20.47-56.78-75.92-234.17-150.65-468.77-227.86-702.66-68.78-208.26-138.46-416.36-225.49-618-48.22-111.94-97.66-223.27-159.78-328Z" transform="translate(-84.25 -180.7)" style="fill: rgb(191, 191, 191);"/>
  <path class="cls-4" d="M2366,4774.64c3.22,2.4,6.12,6,9.77,6.89,87.47,20.17,176.3,27.18,265.71,29,43.19.7,94.73-14.43,152.2-43.72-148.12,19.19-287.85,11.78-427.68,7.83Zm4888.28-219.7c5.17,31.82-9.57,50.3-20.21,69.37-66,117-133.14,233.48-210.35,343.63-155.11,221.14-338.87,417.2-535.48,601.2-103,96.41-216,181.35-330,264.46C5660.47,6213,5070,6445.26,4451.58,6384.63c-89.12-5.75-178-15.56-267.25-21.16-78.18-5.05-155.42-17.1-232.65-29.71-119.23-19.2-237.39-43.59-354-74.69-145-38.56-287.86-83.54-426.59-141.13-118.72-49.14-235.95-101.08-349.39-160.43-120.48-73.58-239.12-150.05-357.37-227.1-132.92-101.38-254.67-214.91-364.2-343.17-64.18-75-124.46-152.61-183-231.92-87.28-118-151.63-248.62-203.9-384.85-34.33-89.82-61.39-182.32-91-273.84-3.92-12.18-3.37-25.92-5.2-40.64l9.46-5.14c46.34,56.81,108.84,93.41,174.12,125.51,115,56.62,235.17,98.94,361,124,37.31,7.41,75.12,13.47,113,16.26,87.06,6.3,174.19,13.3,261.36,14.29,178.17,1.95,352.46-27.19,523.44-74.83,124.87-34.75,249.3-72.46,372.48-113q274.56-90.18,556.24-153.6c67.56-15.27,136.77-22.27,205.29-32.65,29.33-4.34,53.82,2.54,64.33,34.2,28.5,6,54.38,1.11,81.16-2.39,79.77-10.79,159.74-23.68,239.91-27,66.89-2.81,134.39,4.07,201.11,10.93,230.54,23.81,453.22,82,670.71,160.46,113.65,41.05,225.91,86.05,339.85,126.54,131.06,46.53,265.69,80.31,404,95.74,129.26,14.42,258.15,17.79,387.77-5.06,137.54-24.24,271.18-58.71,399.41-113.36,77.65-33.2,153.12-70.91,223.88-116.9q5.18,3.54,10.44,7c12.89,8.68,25.08,18.36,38.29,27.89Z" transform="translate(-84.25 -180.7)" style="fill: rgb(191, 191, 191);"/>
  <path class="cls-5" d="M2366,4774.64c139.88,3.93,279.54,11.36,427.68-7.83-57.43,29.29-109,44.44-152.2,43.72-89.38-1.82-178.25-8.83-265.71-29-3.59-.85-6.59-4.49-9.77-6.89Z" transform="translate(-84.25 -180.7)"/>
  <path class="cls-6" d="M6274.41,5274.56c-52.86-3.22-102.88-14-152.22-30.14-113-37.13-187.77-113.51-218-227.44-42.29-158.78-8.83-301.87,106.08-422.11a344,344,0,0,1,153-93.75c12.95-3.79,25.51-8.13,38.26-12.62,158.08-54.37,336.76-7.69,447,117.73,80.33,91.5,99,199.56,75.12,314.74-36.85,178.56-154.16,282.69-324,332.3-40.32,11.75-83.37,14.56-125.26,21.29Z" transform="translate(-84.25 -180.7)" style="fill: rgb(191, 191, 191);"/>
  <path class="cls-6" d="M2019.74,4824.14c2.65-91.93,28.54-180.63,80.25-262.19,59.75-94.33,148.69-138.47,255.9-152.35,24.38-3.22,48.91-4.9,73.29-8,233.63-30.25,425.62,134.12,409.36,393.94-8.36,135.67-69,248.76-179.52,331.72-166.49,125.14-377.55,92.08-505.07-11.22-90.62-73.42-133.69-171.1-134.21-291.91Z" transform="translate(-84.25 -180.7)" style="fill: rgb(191, 191, 191);"/>
  <path class="cls-7" d="M4405.77,4037.11c43.57,5,112.37,12.47,181,21.58,17.41,2.24,34.9,8.13,51.14,15.28,40.37,17.93,61.95,49.18,63.21,94.32,1,36.71-6.17,71.6-23,103.7-58.45,112.39-135.94,210.07-230.53,293.88-13.26,11.76-28.87,21.44-44.57,29.57-38.12,19.88-77.5,22.42-115.62.84-23.22-13.18-47.5-26.35-66.7-44.43q-90.18-85.35-176.16-174.75c-18.48-19.07-33.78-41.91-47.36-64.89-42.2-71.62-29-144.2,34.6-197.88,26.12-22,56.34-35.32,89.27-44.29,84.11-22.71,154.86-27.6,284.66-32.93Z" transform="translate(-84.25 -180.7)" style="fill: rgb(191, 191, 191);"/>
  <path class="cls-8" d="M5909.78,2877.58c-121.08-91.09-241.09-163.82-371.42-224.65,2.55-9.82,3-18.64,6.73-25.65,61-109.74,128.79-214.83,212.32-308.87,29.58-33.21,63.06-63.06,96.55-92.64,16.59-14.71,35.89-26.62,55.5-37.12,51.32-27.33,87.88-7.86,91.65,51.43,2.43,37.55.28,76.08-4.9,113.51-16.25,115.06-35,229.69-53,344.47-6.86,44.14-14,88.14-21.43,132.28-2.2,12.62-6.32,25.1-12,47.24Z" transform="translate(-84.25 -180.7)" style="fill: rgb(191, 191, 191);"/>
  <path class="cls-8" d="M3215.44,2715.43c-3.53,6.87-4.26,9.12-5.67,10.8-2.79,3.5-5.32,7.56-9,9.81-126.37,76.94-239.23,172.23-356.38,261.63-1.51,1.13-4.34.29-7.28.44-13-4.92-10.23-17.81-11.07-27.76-7.93-91.36-15.69-182.6-22.42-274.11-4.19-55.65-8.27-111.56-9-167.33-.69-51.3,2.1-102.72,5.19-154a164.55,164.55,0,0,1,12.33-51.72c14.46-34.62,42-44.71,76.51-31,32.29,12.89,57.33,35.46,78.21,61.66,41.92,52.41,84.37,104.54,122.06,159.9,45.17,66.43,85.49,135.93,126.47,201.66Z" transform="translate(-84.25 -180.7)" style="fill: rgb(191, 191, 191);"/>
  <path class="cls-7" d="M4179.56,4815.18c28.06,11.64,39.8,35.18,59.42,48.9,21.73,15.28,42.74,32.94,66.84,42.75,47.54,19.47,92.2,10.23,130.33-24.94,14.77-13.74,27.75-29,42.47-42.6a175,175,0,0,1,32-23.69c4.91-2.8,15.54-2.8,18.92.55,5.48,5.62,10.5,15.42,9.52,22.71-1.64,12.75-5.47,27.19-13.18,37.14-18.74,24.52-37.41,50.87-61.51,69.65-93.88,73.58-231.52,39.51-283.23-68.12-8.8-18.08-16.69-37-1.54-62.35Z" transform="translate(-84.25 -180.7)" style="fill: rgb(191, 191, 191);"/>
  <path class="cls-3" d="M4439.55,2655c4.66-27.05,8.95-60.26,16.79-92.5,2-7.84,14.57-16,23.82-18.63,11.54-3.36,25.24,11.77,22.43,26.34-7.11,39.23-16,78.19-26.06,116.75-1.54,6-14,14.43-19.2,13-6.44-1.54-11.92-11.63-15.42-19.2-2.49-5.74-1.41-13-2.36-25.78Zm217.62,771.62c-6.88-40.93-1.55-66.44,11.35-90.25,2.53-4.63,13.45-10.24,15.27-8.69,5.81,4.62,13.31,12.89,12.47,18.64-3.33,26.07-11.63,50.59-39.09,80.3Zm233.78-762c-3.66-49.18,5.15-79.46,24.91-106.92,2-2.67,9.68-4.9,11.78-3.37,4.68,3.52,10.66,9.68,10.23,14.29-2.65,31.41-13.45,59.58-46.92,96ZM3857.41,3065.75c34.36,33.36,25.61,70.22,41.72,113.66-19.59-8.7-29.28-9.8-32.23-14.72-22.55-38.54-24-53.25-9.49-98.94Zm647,283.37c-2,47.36-14.19,75.39-27.07,66.85-25.78-16.68-10-43.87-12.75-66.58-.55-4.19-.43-9.66,1.82-12.88,6-8.41,12.47-21,20.31-22.29,12.9-2.09,16.54,11.22,17.66,22.71.28,4.48,0,9,0,12.19Zm-380.91-188.77c-7.69-1.12-13.75-.14-15.59-2.53-21.68-28.3-23.67-60.4-15.41-93.75.85-3.08,6.74-7.56,9.53-7,5.51,1,14,3.78,15.28,7.84,10.42,31.26,13.88,63.06,6.19,95.44Zm42.19,506c-37.14-56.75-41.09-74.12-30-119.53,31,22,42.76,63.21,30,119.53Zm136.09-83a52,52,0,0,1,0-6.72c1.11-13.18.55-27.76,17.38-31.95,12.5-3.22,22.56,11.91,22.56,33.63a210.86,210.86,0,0,1-1.41,26.76c-1.91,15-.29,32.11-17.24,40.66-10,5.16-19.33-13.6-20.74-42.33-.38-6.59-.13-13.32-.13-20.05Zm409.79-409.36c-3.28-36.42,8.49-68.24,29.64-97.1,2-2.67,9-4.49,11.79-2.95,5.18,2.8,12.88,8.27,12.74,12.61-.94,33.92-14,63.49-38.82,87.17-2,2.1-8.11.27-15.35.27Zm-382.36-63.32c-.37-33.64,7.56-51.17,21.71-46.11,22.56,8,17.52,28,17.38,44.84-.24,39-8.83,58.43-22.42,54.23-12.7-3.92-16-14.29-16.67-53Zm230.12,52.41c-7.44-4.36-13-5.61-14.32-8.56-12.74-32.79-7.27-65.17,4.79-96.55,1.53-4.2,10.36-6.86,16.09-7.72,3.09-.41,9.13,4.07,10,7.43,9.59,37.43,1,71.62-16.52,105.4Zm47-231.25c-17.85-26.62-9.31-50.72-5.52-73.56,2-12.34,9.54-24.12,16.68-34.75,2.71-3.93,11.21-3.79,18.78-6,14.21,35.59-3.52,65.72-12.33,96.41-1.78,6.46-10.52,10.94-17.61,17.94Zm-41.93,711.37c-22.84-36.57-13.2-68.67,5.57-99.36,1.54-2.67,8.83-4.34,12.06-3,5.5,2.39,13.6,7.16,14,11.36,3,34.33-10.79,63.62-31.64,91ZM4009.89,3300.2c27.05,41.49,31.49,82,37,131.74-13.68-7.84-23-9.81-25.78-15.13-15.66-29.42-28-60.27-25.65-94.46.46-6.31,7.7-12.19,14.47-22.15ZM4212.64,2921c-4.61-6.89-12.34-13.6-13.32-21.17a617.09,617.09,0,0,1-5.45-73.43c-.15-11.22,5.45-23.7,19-22.15,6.73.84,16.54,10.37,17.52,17.1,4.92,30.82,7.85,62.22-4.19,92.35-1.24,2.94-7.31,4.06-13.6,7.3Zm-198.15-280.58c-3.09,24,5.58,45.84-14.31,59.15-11.85,8.13-25.79-13.18-30-50.32-2.23-19.62-2-39.66-1-59.42.57-12.33,9.66-21.44,21.86-19.47,6.65,1,15.83,9.52,17.24,16.11,4.1,19.33,4.63,39.37,6.18,54ZM4704.73,2656c9.77-30.69,18.31-60.68,29.38-89.69,2-4.9,16.1-9.67,22-7.43,6.2,2.24,14.15,14.3,12.76,19.77a826.5,826.5,0,0,1-29.57,88.84c-2.22,5.46-15,11.36-20.89,9.67-5.73-1.69-8.69-12.75-13.67-21.16Zm-260,134.68c16.4,50.59,4.06,93.32-8.69,135.93-.83,2.8-8,6.59-10.8,5.75-5.42-2-13.45-6.31-14.29-10.79-6.57-37.84-5.75-76,6.31-112.67,2.25-7.15,15.84-10.79,27.47-18.22Zm-184.27,557.77c-.94,21.71.12,35.44-2.82,48.2-1.66,7-9.39,13.59-16,17.52-2.07,1.11-13-6.45-14.3-11.5-9.09-34.46-17.79-69.5-6.57-105.24,1.71-5.47,9.38-13.6,12.74-12.76,7.44,1.54,18.22,6.86,19.63,12.62,4.65,19.2,5.74,39.38,7.3,51.16ZM3939.7,2873.76c1.2-5.89,1.75-15.27,5.68-22.85,2.7-5.18,9.82-10.79,15.15-11.07s15.13,5.32,15.68,9.53c5.61,37.29,9.81,74.84,13.6,112.41.34,2.79-5.19,8.54-8,8.68-6,.14-14.85-.7-17.52-4.49-18.73-26.63-22.42-57.73-24.6-92.21ZM4802.92,2900c5.93-17.38,14.29-44.71,24.66-71.19,4.1-10.52,13.88-17.81,26.62-14.44,13.48,3.63,16,16,12.89,26.48a921,921,0,0,1-30.4,87.46c-2.24,5.31-15.42,11.35-20.6,9.24-6-2.24-9.11-12.88-13-20.17-.82-1.69-.13-4.36-.13-17.38ZM4220.4,2610.14c2.9-19.33,3.73-39.64,9.75-58.29,2.55-8,16.4-17.79,24.38-17.09,7.49.69,18.92,13.3,19.9,21.72,4.49,38.12-5.18,74.83-17.79,110.43-1.49,4.34-10.93,8.83-16.25,8.27s-13.05-6.87-13.88-11.77c-3.34-17.24-4.35-34.9-6.11-53.27ZM3788.59,2734c-12-6.31-26.09-9.1-28.48-16-12.31-35.17-22.28-71.19-31.39-107.35-1.79-7.28,3-16.95,6.31-24.81,5.63-12.75,24.94-14.56,32.8-3.77,1.28,1.81,3.78,3.07,4.2,5,13,46.11,27.61,92.21,16.56,146.86Z" transform="translate(-84.25 -180.7)" style="fill: rgb(191, 191, 191);"/>
  <path class="cls-8" d="M5259,4245.64c4.47,4.34,15,9.95,18.47,18.51,6.5,16-.54,30.41-12.89,42-12.14,11.49-32.65,6.59-38.12-9.39-8.64-25.65,3.5-48.9,32.54-51.15Z" transform="translate(-84.25 -180.7)" style="fill: rgb(191, 191, 191);"/>
  <path class="cls-8" d="M3582.47,4241.16c4.34,2.8,11,5,14.65,9.66,11.26,14.16,8.56,29.3-2.09,42.19-3.23,3.92-12.9,6.73-17.1,4.76-18.36-8.41-22.7-36-8.84-50.45,2.83-2.8,7.57-3.64,13.38-6.16Z" transform="translate(-84.25 -180.7)" style="fill: rgb(191, 191, 191);"/>
  <path class="cls-8" d="M3768.12,4185.51c1.51,21.87-3.52,35.61-18.66,43.87-2.9,1.69-9.11.56-12.32-1.53-15.12-10.09-15.71-25-11.37-40.64,3.25-11.5,10.65-21.72,22.71-18.22,8.73,2.38,15,12.47,19.64,16.52Z" transform="translate(-84.25 -180.7)" style="fill: rgb(191, 191, 191);"/>
  <path class="cls-8" d="M3445.8,4372.89c-6.3,12.75-9.83,23.13-16,31.24-2.78,3.79-14.85,6.18-16.24,4.22-5.9-7.72-12.47-17.24-12.63-26.21-.07-12.61,5-27.61,21.31-26.35,8,.56,15.27,10.65,23.57,17.1Z" transform="translate(-84.25 -180.7)" style="fill: rgb(191, 191, 191);"/>
  <path class="cls-8" d="M3713.89,4341.64c-17.91-3.52-26.36-16.4-24.68-30.83s15.11-24.53,27.46-20.89c11.91,3.65,19.61,17.39,14.15,31.95-3.05,8.41-12.33,14.57-16.93,19.77Z" transform="translate(-84.25 -180.7)" style="fill: rgb(191, 191, 191);"/>
  <path class="cls-8" d="M5167.69,4148.23c.33,20.19-9.8,32.39-22.56,31.41-13.12-1-17.93-10.38-18.08-22.14-.28-15.56,10.65-29.58,21.73-25.65,8.45,3.07,14.57,12.47,18.91,16.38Z" transform="translate(-84.25 -180.7)" style="fill: rgb(191, 191, 191);"/>
  <path class="cls-8" d="M4967.35,4198.41c-5.62,11.92-9,22.15-15.06,30.55s-24.38,4.62-26.21-5.6-2.52-21.71.84-31c2.14-5.18,13.9-10.23,20.33-9.4,6.79,1,12.47,9.25,20.1,15.42Z" transform="translate(-84.25 -180.7)" style="fill: rgb(191, 191, 191);"/>
  <path class="cls-8" d="M3448.32,4220.27c3.66,3.65,11.89,8.28,13.85,14.71,5.77,19.06-4.07,39-16.27,35.6-6.53-2-13.86-10.36-16.24-17.52-5.17-15.83,1.67-28.58,18.66-32.79Z" transform="translate(-84.25 -180.7)" style="fill: rgb(191, 191, 191);"/>
  <path class="cls-8" d="M5080,4273.24c-11.6,11.78-17.67,21.17-26.22,25.51-8,4.08-20.6-10.37-18.22-22,1.55-7.3,9.25-18.93,13.73-18.79,8.57.29,16.83,7.86,30.71,15.27Z" transform="translate(-84.25 -180.7)" style="fill: rgb(191, 191, 191);"/>
  <path class="cls-5" d="M2602.12,4045.74c3.09-78.9,20.57-156.81,64.16-226.75,40.09-64.47,96.14-105.25,176.16-102.3,63,2.25,112.67,49.61,119.54,112.54,1.87,15.4,4.9,30.69,8.26,45.82,23.57,105.79,10.24,208.67-24.8,309.57-14,40.37-34.74,77.22-66.7,107.07-56.46,52.69-111.7,55.78-174.77,9.53-35.7-26.07-58-61.8-73.15-101.88-18.05-48.36-27.31-98.94-28.7-153.6Z" transform="translate(-84.25 -180.7)" style="fill: rgb(191, 191, 191);"/>
  <path class="cls-7" d="M2943.79,3775.53a129.3,129.3,0,0,1,18.19,53.7c1.87,15.4,4.9,30.69,8.26,45.82,23.57,105.79,10.24,208.67-24.8,309.57a301.47,301.47,0,0,1-24.77,54.38c-30.24,3.27-58.87-11.16-81.45-41.6-21.86-29.58-30.83-64.2-36.15-99.79-2.35-15.41-2-31.12-2.1-34.33-.82-103.56,30.39-182.06,87.43-252.82,16.26-20.22,35.65-31.21,55.39-34.93Z" transform="translate(-84.25 -180.7)" style="fill: rgb(191, 191, 191);"/>
  <path class="cls-5" d="M5819.67,4053.6c3.09-78.92,20.57-156.83,64.16-226.75,40.08-64.47,96.14-105.26,176.17-102.31,62.95,2.24,112.65,49.61,119.53,112.54,1.88,15.41,4.9,30.69,8.27,45.83,23.56,105.79,10.24,208.67-24.81,309.56-14,40.36-34.75,77.23-66.71,107.08-56.45,52.69-111.68,55.78-174.76,9.53-35.7-26.07-58-61.81-73.15-101.89-18-48.36-27.32-98.94-28.7-153.59Z" transform="translate(-84.25 -180.7)" style="fill: rgb(191, 191, 191);"/>
  <path class="cls-7" d="M6161.35,3783.39a129.15,129.15,0,0,1,18.18,53.69c1.88,15.41,4.9,30.69,8.27,45.83,23.56,105.79,10.24,208.67-24.81,309.56a301.84,301.84,0,0,1-24.77,54.38c-30.23,3.28-58.87-11.16-81.45-41.6-21.85-29.57-30.83-64.19-36.16-99.78-2.35-15.41-2-31.12-2.09-34.33-.83-103.58,30.39-182,87.43-252.82,16.26-20.23,35.64-31.23,55.4-34.93Z" transform="translate(-84.25 -180.7)" style="fill: rgb(191, 191, 191);"/>
</svg>