<svg id="svg" version="1.1" xmlns="http://www.w3.org/2000/svg" xmlns:xlink="http://www.w3.org/1999/xlink" width="400" height="400" viewBox="0, 0, 400,400"><g id="svgg"><path id="path0" d="M186.824 0.219 C 186.174 0.281,183.742 0.491,181.419 0.686 C 90.625 8.328,14.890 80.308,1.885 171.319 C 0.336 182.158,0.169 184.953,0.169 200.000 C 0.169 253.585,19.624 301.690,56.585 339.492 C 142.774 427.642,286.073 418.488,360.126 320.101 C 394.926 273.865,407.974 213.857,395.561 157.129 C 376.661 70.756,303.383 7.219,214.731 0.338 C 210.810 0.034,189.748 -0.056,186.824 0.219 M215.709 9.801 C 350.959 21.510,431.334 165.574,370.075 286.486 C 316.558 392.117,179.911 423.713,85.169 352.363 C -7.403 282.647,-16.834 147.184,65.175 65.175 C 99.410 30.941,141.417 12.401,191.723 9.322 C 195.206 9.108,211.460 9.433,215.709 9.801 " stroke="none" fill="#6b6b6b" fill-rule="evenodd"></path><path id="path1" d="M191.723 9.322 C 105.169 14.619,35.103 71.890,14.861 153.885 C -18.060 287.239,96.364 410.922,231.612 388.179 C 353.907 367.613,424.513 237.134,374.848 123.480 C 343.548 51.853,267.848 4.662,191.723 9.322 " stroke="none" fill="#b4b4b4" fill-rule="evenodd"></path></g></svg>